<?xml version="1.0" encoding="UTF-8" standalone="no"?>
<!-- Created with Inkscape (http://www.inkscape.org/) -->

<svg
   version="1.1"
   id="svg2"
   width="546.1333"
   height="546.1333"
   viewBox="0 0 546.1333 546.1333"
   sodipodi:docname="responsive.svg"
   inkscape:version="1.2.1 (9c6d41e410, 2022-07-14)"
   xmlns:inkscape="http://www.inkscape.org/namespaces/inkscape"
   xmlns:sodipodi="http://sodipodi.sourceforge.net/DTD/sodipodi-0.dtd"
   xmlns="http://www.w3.org/2000/svg"
   xmlns:svg="http://www.w3.org/2000/svg">
  <defs
     id="defs6" />
  <sodipodi:namedview
     id="namedview4"
     pagecolor="#ffffff"
     bordercolor="#000000"
     borderopacity="0.25"
     inkscape:showpageshadow="2"
     inkscape:pageopacity="0.0"
     inkscape:pagecheckerboard="0"
     inkscape:deskcolor="#d1d1d1"
     showgrid="false"
     inkscape:zoom="1.5325929"
     inkscape:cx="237.17975"
     inkscape:cy="273.39289"
     inkscape:window-width="1920"
     inkscape:window-height="1017"
     inkscape:window-x="-8"
     inkscape:window-y="-8"
     inkscape:window-maximized="1"
     inkscape:current-layer="g8" />
  <g
     inkscape:groupmode="layer"
     inkscape:label="Image"
     id="g8">
    <path
       style="fill:#ffffff;stroke-width:1.06667;fill-opacity:1"
       d="M 25.267045,487.6131 C 12.934055,482.51174 5.8160453,474.11963 3.1538553,461.54174 c -0.82987,-3.92085 -1.19639,-33.18034 -1.19639,-95.50922 0,-97.73284 -0.0444,-96.94117 5.97424,-106.47534 3.9187797,-6.20774 8.5258997,-10.27198 15.3590897,-13.54923 l 5.86667,-2.8137 h 59.73333 59.733335 l 5.86666,2.78699 c 7.74137,3.67757 13.41268,9.52202 17.47935,18.01301 l 3.32065,6.93333 0.30086,91.57416 c 0.19613,59.70131 -0.0823,93.64723 -0.8002,97.5303 -2.25296,12.18738 -9.43812,21.6711 -20.30066,26.79491 l -5.86666,2.76729 -58.666665,0.25525 -58.66667,0.25525 z M 144.71482,464.08524 c 6.29586,-3.25572 6.04264,0.83806 6.04264,-97.69141 0,-75.23623 -0.24879,-90.80852 -1.48774,-93.12338 -3.22307,-6.02191 -3.76017,-6.0762 -60.114295,-6.0762 -34.1005,0 -52.79832,0.38998 -54.96841,1.14647 -1.80883,0.63058 -4.16046,2.43058 -5.22583,4 -1.82733,2.69189 -1.95351,7.88728 -2.22752,91.71782 -0.19876,60.809 0.0709,90.20639 0.85421,93.11531 0.79521,2.95319 2.1865,4.88624 4.55714,6.33172 3.26282,1.98946 5.74156,2.08087 56.53208,2.08468 43.713285,0.003 53.636365,-0.26322 56.037725,-1.50501 z m -64.073865,-14.4035 c -3.05434,-2.72906 -3.48349,-3.76975 -3.48349,-8.4474 0,-4.19044 0.55945,-5.9304 2.60789,-8.11087 6.79649,-7.23453 19.18851,-4.00766 20.964495,5.45914 2.14801,11.4499 -11.349835,18.90747 -20.088895,11.09913 z m 124.697085,38.26397 c -5.37884,-4.23099 -5.93973,-13.63476 -1.1018,-18.47269 3.09906,-3.09905 6.63127,-3.87878 17.57105,-3.87878 7.75339,0 8.64488,-0.23367 11.86667,-3.11033 l 3.4835,-3.11032 0.32786,-21.31688 0.32786,-21.31688 -14.38473,-0.37279 c -12.58593,-0.32619 -14.7611,-0.65231 -17.39452,-2.60801 -6.51901,-4.84131 -6.51824,-15.22345 0.001,-20.06291 l 3.0117,-2.23521 153.94361,-0.53333 c 149.34225,-0.5174 154.01053,-0.59391 156.18272,-2.55991 1.23151,-1.11461 2.71913,-3.75461 3.30582,-5.86666 1.51673,-5.4602 1.45939,-300.025982 -0.0594,-305.495572 -0.75673,-2.72509 -2.24194,-4.73581 -4.52739,-6.12934 -3.33898,-2.03592 -7.34037,-2.07394 -218.70786,-2.07785 l -215.306705,-0.004 -3.62667,3.62667 -3.62667,3.62666 -0.006,64.373332 c -0.004,40.82932 -0.40733,65.81856 -1.1034,68.32481 -1.54202,5.55226 -5.44708,8.31519 -11.75242,8.31519 -4.29088,0 -5.63684,-0.52941 -8.41882,-3.31139 l -3.31133,-3.31138 0.29601,-70.02194 c 0.29252,-69.197622 0.32314,-70.080652 2.60095,-75.009322 3.26461,-7.063859 10.25655,-14.209583 17.27745,-17.657451 l 6.0176,-2.955165 H 299.55745 520.89077 l 6.03241,2.828117 c 6.61538,3.101425 13.86893,9.895368 16.89258,15.822199 4.33801,8.5032 4.38992,10.67899 4.05972,170.149672 -0.28939,139.76553 -0.47674,154.01355 -2.08002,158.19159 -3.89823,10.15852 -12.0207,18.29594 -22.23802,22.27894 -4.39058,1.71157 -11.51821,1.90077 -83.56403,2.21818 l -78.76404,0.34699 0.36405,20.48215 c 0.30951,17.4149 0.64581,20.89679 2.24565,23.25107 2.70968,3.98747 6.26189,5.23028 14.96856,5.23702 4.22573,0.003 9.46247,0.50012 11.63718,1.10411 9.22253,2.56139 11.3802,15.2748 3.65446,21.53288 -2.11579,1.71386 -8.70957,1.84462 -94.1313,1.86667 -90.93996,0.0235 -91.88381,0.002 -94.62993,-2.15814 z m 133.1417,-24.75147 c -0.43625,-1.32 -1.02074,-12.36 -1.29886,-24.53333 l -0.50566,-22.13334 h -37.16676 -37.16677 l -0.34137,22.66667 c -0.18775,12.46667 -0.74555,23.50666 -1.23957,24.53333 -0.84708,1.76044 1.36145,1.86667 38.80698,1.86667 h 39.7052 z m -41.58895,-84.93288 c -5.66367,-1.77108 -9.06667,-6.3543 -9.06667,-12.21113 0,-3.28145 0.7493,-4.88529 3.62667,-7.76265 2.97192,-2.97193 4.43462,-3.62667 8.102,-3.62667 15.03096,0 16.90595,20.81979 2.138,23.74021 -1.46667,0.29004 -3.62667,0.22715 -4.8,-0.13976 z m -87.65132,-37.14249 c -3.25423,-0.63387 -7.44083,-5.1187 -8.16679,-8.74853 -0.88822,-4.44112 1.07085,-10.34809 4.26536,-12.8609 2.76271,-2.17316 3.33902,-2.18186 144.41454,-2.18186 h 141.64075 l 3.28206,3.28205 c 2.75103,2.75104 3.28205,4.1084 3.28205,8.38948 0,6.30534 -2.76293,10.2104 -8.31519,11.75245 -3.81918,1.06071 -275.01914,1.41598 -280.40278,0.36731 z"
       id="path847" />
  </g>
</svg>
